<?xml version="1.0" encoding="UTF-8"?>
<svg xmlns="http://www.w3.org/2000/svg" xmlns:xlink="http://www.w3.org/1999/xlink" width="128.764211px" height="30px" viewBox="0 0 128.764211 30" version="1.1">
  <title>rr-logo-full-dark copy 2</title>
  <g id="Page-1" stroke="none" stroke-width="1" fill="none" fill-rule="evenodd">
    <g id="Artboard-Copy-9" transform="translate(-422.000000, -293.000000)" fill="#202020" fill-rule="nonzero">
      <path d="M452,293 L444.5,300.5 L432.5,300.5 C430.843146,300.5 429.5,301.843146 429.5,303.5 L429.5,315.5 L422,323 L422,303.5 C422,297.70101 426.70101,293 432.5,293 L452,293 Z M455.352,316.424 C455.576,315.985333 455.895667,315.644667 456.311,315.402 C456.726333,315.159333 457.232667,315.038 457.83,315.038 L457.83,316.354 L457.494,316.354 C456.066,316.354 455.352,317.128667 455.352,318.678 L455.352,322.85 L454.078,322.85 L454.078,315.178 L455.352,315.178 L455.352,316.424 Z M466.693474,315.178 L466.693474,322.85 L465.419474,322.85 L465.419474,321.716 C465.176807,322.108 464.838474,322.413667 464.404474,322.633 C463.970474,322.852333 463.49214,322.962 462.969474,322.962 C462.37214,322.962 461.835474,322.838333 461.359474,322.591 C460.883474,322.343667 460.507807,321.972667 460.232474,321.478 C459.95714,320.983333 459.819474,320.381333 459.819474,319.672 L459.819474,315.178 L461.079474,315.178 L461.079474,319.504 C461.079474,320.26 461.270807,320.841 461.653474,321.247 C462.03614,321.653 462.558807,321.856 463.221474,321.856 C463.902807,321.856 464.439474,321.646 464.831474,321.226 C465.223474,320.806 465.419474,320.194667 465.419474,319.392 L465.419474,315.178 L466.693474,315.178 Z M470.712947,316.606 C470.974281,316.148667 471.356947,315.775333 471.860947,315.486 C472.364947,315.196667 472.938947,315.052 473.582947,315.052 C474.273614,315.052 474.894281,315.215333 475.444947,315.542 C475.995614,315.868667 476.429614,316.328333 476.746947,316.921 C477.064281,317.513667 477.222947,318.202 477.222947,318.986 C477.222947,319.760667 477.064281,320.451333 476.746947,321.058 C476.429614,321.664667 475.993281,322.136 475.437947,322.472 C474.882614,322.808 474.264281,322.976 473.582947,322.976 C472.920281,322.976 472.339281,322.831333 471.839947,322.542 C471.340614,322.252667 470.964947,321.884 470.712947,321.436 L470.712947,322.85 L469.438947,322.85 L469.438947,312.49 L470.712947,312.49 L470.712947,316.606 Z M475.920947,318.986 C475.920947,318.407333 475.804281,317.903333 475.570947,317.474 C475.337614,317.044667 475.022614,316.718 474.625947,316.494 C474.229281,316.27 473.792947,316.158 473.316947,316.158 C472.850281,316.158 472.418614,316.272333 472.021947,316.501 C471.625281,316.729667 471.307947,317.061 471.069947,317.495 C470.831947,317.929 470.712947,318.430667 470.712947,319 C470.712947,319.578667 470.831947,320.085 471.069947,320.519 C471.307947,320.953 471.625281,321.284333 472.021947,321.513 C472.418614,321.741667 472.850281,321.856 473.316947,321.856 C473.792947,321.856 474.229281,321.741667 474.625947,321.513 C475.022614,321.284333 475.337614,320.953 475.570947,320.519 C475.804281,320.085 475.920947,319.574 475.920947,318.986 Z M486.492421,318.72 C486.492421,318.962667 486.478421,319.219333 486.450421,319.49 L480.318421,319.49 C480.365088,320.246 480.624088,320.836333 481.095421,321.261 C481.566754,321.685667 482.138421,321.898 482.810421,321.898 C483.361088,321.898 483.820754,321.769667 484.189421,321.513 C484.558088,321.256333 484.817088,320.913333 484.966421,320.484 L486.338421,320.484 C486.133088,321.221333 485.722421,321.821 485.106421,322.283 C484.490421,322.745 483.725088,322.976 482.810421,322.976 C482.082421,322.976 481.431421,322.812667 480.857421,322.486 C480.283421,322.159333 479.833088,321.695 479.506421,321.093 C479.179754,320.491 479.016421,319.793333 479.016421,319 C479.016421,318.206667 479.175088,317.511333 479.492421,316.914 C479.809754,316.316667 480.255421,315.857 480.829421,315.535 C481.403421,315.213 482.063754,315.052 482.810421,315.052 C483.538421,315.052 484.182421,315.210667 484.742421,315.528 C485.302421,315.845333 485.734088,316.281667 486.037421,316.837 C486.340754,317.392333 486.492421,318.02 486.492421,318.72 Z M485.176421,318.454 C485.176421,317.968667 485.069088,317.551 484.854421,317.201 C484.639754,316.851 484.348088,316.585 483.979421,316.403 C483.610754,316.221 483.202421,316.13 482.754421,316.13 C482.110421,316.13 481.562088,316.335333 481.109421,316.746 C480.656754,317.156667 480.397754,317.726 480.332421,318.454 L485.176421,318.454 Z M492.499895,315.038 C493.433228,315.038 494.189228,315.320333 494.767895,315.885 C495.346561,316.449667 495.635895,317.264 495.635895,318.328 L495.635895,322.85 L494.375895,322.85 L494.375895,318.51 C494.375895,317.744667 494.184561,317.159 493.801895,316.753 C493.419228,316.347 492.896561,316.144 492.233895,316.144 C491.561895,316.144 491.027561,316.354 490.630895,316.774 C490.234228,317.194 490.035895,317.805333 490.035895,318.608 L490.035895,322.85 L488.761895,322.85 L488.761895,315.178 L490.035895,315.178 L490.035895,316.27 C490.287895,315.878 490.630895,315.574667 491.064895,315.36 C491.498895,315.145333 491.977228,315.038 492.499895,315.038 Z M504.822842,316.34 C505.102842,315.910667 505.452842,315.572333 505.872842,315.325 C506.292842,315.077667 506.759509,314.954 507.272842,314.954 L507.272842,317.488 L506.614842,317.488 C506.017509,317.488 505.569509,317.616333 505.270842,317.873 C504.972175,318.129667 504.822842,318.58 504.822842,319.224 L504.822842,322.85 L502.428842,322.85 L502.428842,315.038 L504.822842,315.038 L504.822842,316.34 Z M516.374316,318.818 C516.374316,319.042 516.360316,319.275333 516.332316,319.518 L510.914316,319.518 C510.951649,320.003333 511.107982,320.374333 511.383316,320.631 C511.658649,320.887667 511.996982,321.016 512.398316,321.016 C512.995649,321.016 513.410982,320.764 513.644316,320.26 L516.192316,320.26 C516.061649,320.773333 515.825982,321.235333 515.485316,321.646 C515.144649,322.056667 514.717649,322.378667 514.204316,322.612 C513.690982,322.845333 513.116982,322.962 512.482316,322.962 C511.716982,322.962 511.035649,322.798667 510.438316,322.472 C509.840982,322.145333 509.374316,321.678667 509.038316,321.072 C508.702316,320.465333 508.534316,319.756 508.534316,318.944 C508.534316,318.132 508.699982,317.422667 509.031316,316.816 C509.362649,316.209333 509.826982,315.742667 510.424316,315.416 C511.021649,315.089333 511.707649,314.926 512.482316,314.926 C513.238316,314.926 513.910316,315.084667 514.498316,315.402 C515.086316,315.719333 515.545982,316.172 515.877316,316.76 C516.208649,317.348 516.374316,318.034 516.374316,318.818 Z M513.924316,318.188 C513.924316,317.777333 513.784316,317.450667 513.504316,317.208 C513.224316,316.965333 512.874316,316.844 512.454316,316.844 C512.052982,316.844 511.714649,316.960667 511.439316,317.194 C511.163982,317.427333 510.993649,317.758667 510.928316,318.188 L513.924316,318.188 Z M522.997789,322.85 L520.617789,319.574 L520.617789,322.85 L518.223789,322.85 L518.223789,312.49 L520.617789,312.49 L520.617789,318.216 L522.983789,315.038 L525.937789,315.038 L522.689789,318.958 L525.965789,322.85 L522.997789,322.85 Z M532.239263,322.85 L529.859263,319.574 L529.859263,322.85 L527.465263,322.85 L527.465263,312.49 L529.859263,312.49 L529.859263,318.216 L532.225263,315.038 L535.179263,315.038 L531.931263,318.958 L535.207263,322.85 L532.239263,322.85 Z M544.070737,318.818 C544.070737,319.042 544.056737,319.275333 544.028737,319.518 L538.610737,319.518 C538.64807,320.003333 538.804404,320.374333 539.079737,320.631 C539.35507,320.887667 539.693404,321.016 540.094737,321.016 C540.69207,321.016 541.107404,320.764 541.340737,320.26 L543.888737,320.26 C543.75807,320.773333 543.522404,321.235333 543.181737,321.646 C542.84107,322.056667 542.41407,322.378667 541.900737,322.612 C541.387404,322.845333 540.813404,322.962 540.178737,322.962 C539.413404,322.962 538.73207,322.798667 538.134737,322.472 C537.537404,322.145333 537.070737,321.678667 536.734737,321.072 C536.398737,320.465333 536.230737,319.756 536.230737,318.944 C536.230737,318.132 536.396404,317.422667 536.727737,316.816 C537.05907,316.209333 537.523404,315.742667 538.120737,315.416 C538.71807,315.089333 539.40407,314.926 540.178737,314.926 C540.934737,314.926 541.606737,315.084667 542.194737,315.402 C542.782737,315.719333 543.242404,316.172 543.573737,316.76 C543.90507,317.348 544.070737,318.034 544.070737,318.818 Z M541.620737,318.188 C541.620737,317.777333 541.480737,317.450667 541.200737,317.208 C540.920737,316.965333 540.570737,316.844 540.150737,316.844 C539.749404,316.844 539.41107,316.960667 539.135737,317.194 C538.860404,317.427333 538.69007,317.758667 538.624737,318.188 L541.620737,318.188 Z M548.314211,316.34 C548.594211,315.910667 548.944211,315.572333 549.364211,315.325 C549.784211,315.077667 550.250877,314.954 550.764211,314.954 L550.764211,317.488 L550.106211,317.488 C549.508877,317.488 549.060877,317.616333 548.762211,317.873 C548.463544,318.129667 548.314211,318.58 548.314211,319.224 L548.314211,322.85 L545.920211,322.85 L545.920211,315.038 L548.314211,315.038 L548.314211,316.34 Z" id="rr-logo-full-dark-copy-2"></path>
    </g>
  </g>
</svg>
